<mxfile host="app.diagrams.net" modified="2024-03-20T23:34:00.497Z" agent="Mozilla/5.0 (Windows NT 10.0; Win64; x64) AppleWebKit/537.36 (KHTML, like Gecko) Chrome/122.0.0.0 Safari/537.36" etag="tQ3IZZlAjtzJTUP46nZm" version="24.0.7" type="device">
  <diagram name="Page-1" id="ZxSLUyG-Lfv59k5_sUDl">
    <mxGraphModel dx="3686" dy="1546" grid="1" gridSize="10" guides="1" tooltips="1" connect="1" arrows="1" fold="1" page="1" pageScale="1" pageWidth="1700" pageHeight="1100" math="0" shadow="0">
      <root>
        <mxCell id="0" />
        <mxCell id="1" parent="0" />
        <mxCell id="6VGfn3pfcpzd_MSDmQnM-1" value="" style="shape=mxgraph.cisco.people.standing_woman;html=1;pointerEvents=1;dashed=0;fillColor=#036897;strokeColor=#ffffff;strokeWidth=2;verticalLabelPosition=bottom;verticalAlign=top;align=center;outlineConnect=0;" parent="1" vertex="1">
          <mxGeometry x="16" y="274" width="32" height="90" as="geometry" />
        </mxCell>
        <mxCell id="6VGfn3pfcpzd_MSDmQnM-2" value="Admin" style="text;html=1;align=center;verticalAlign=middle;whiteSpace=wrap;rounded=0;" parent="1" vertex="1">
          <mxGeometry x="2" y="364" width="60" height="30" as="geometry" />
        </mxCell>
        <mxCell id="6VGfn3pfcpzd_MSDmQnM-3" value="Create new User" style="ellipse;whiteSpace=wrap;html=1;" parent="1" vertex="1">
          <mxGeometry x="471" y="60" width="90" height="50" as="geometry" />
        </mxCell>
        <mxCell id="6VGfn3pfcpzd_MSDmQnM-4" value="Delete User" style="ellipse;whiteSpace=wrap;html=1;" parent="1" vertex="1">
          <mxGeometry x="471" y="120" width="90" height="50" as="geometry" />
        </mxCell>
        <mxCell id="6VGfn3pfcpzd_MSDmQnM-5" value="Edit User" style="ellipse;whiteSpace=wrap;html=1;" parent="1" vertex="1">
          <mxGeometry x="471" y="180" width="90" height="50" as="geometry" />
        </mxCell>
        <mxCell id="6VGfn3pfcpzd_MSDmQnM-6" value="Show all users" style="ellipse;whiteSpace=wrap;html=1;" parent="1" vertex="1">
          <mxGeometry x="131" y="120" width="90" height="50" as="geometry" />
        </mxCell>
        <mxCell id="6VGfn3pfcpzd_MSDmQnM-7" value="Select user" style="ellipse;whiteSpace=wrap;html=1;" parent="1" vertex="1">
          <mxGeometry x="261" y="120" width="90" height="50" as="geometry" />
        </mxCell>
        <mxCell id="6VGfn3pfcpzd_MSDmQnM-8" value="" style="endArrow=none;html=1;rounded=0;entryX=1.055;entryY=0.455;entryDx=0;entryDy=0;entryPerimeter=0;" parent="1" target="6VGfn3pfcpzd_MSDmQnM-6" edge="1">
          <mxGeometry width="50" height="50" relative="1" as="geometry">
            <mxPoint x="261" y="143" as="sourcePoint" />
            <mxPoint x="461" y="90" as="targetPoint" />
          </mxGeometry>
        </mxCell>
        <mxCell id="6VGfn3pfcpzd_MSDmQnM-9" value="" style="endArrow=none;html=1;rounded=0;exitX=1;exitY=0.5;exitDx=0;exitDy=0;" parent="1" edge="1">
          <mxGeometry width="50" height="50" relative="1" as="geometry">
            <mxPoint x="391" y="115" as="sourcePoint" />
            <mxPoint x="470" y="80" as="targetPoint" />
            <Array as="points">
              <mxPoint x="391" y="80" />
            </Array>
          </mxGeometry>
        </mxCell>
        <mxCell id="6VGfn3pfcpzd_MSDmQnM-10" value="" style="endArrow=none;html=1;rounded=0;exitX=1;exitY=0.5;exitDx=0;exitDy=0;entryX=0;entryY=0.5;entryDx=0;entryDy=0;" parent="1" target="6VGfn3pfcpzd_MSDmQnM-5" edge="1">
          <mxGeometry width="50" height="50" relative="1" as="geometry">
            <mxPoint x="391" y="115" as="sourcePoint" />
            <mxPoint x="501" y="120" as="targetPoint" />
            <Array as="points">
              <mxPoint x="391" y="205" />
            </Array>
          </mxGeometry>
        </mxCell>
        <mxCell id="6VGfn3pfcpzd_MSDmQnM-11" value="" style="endArrow=none;html=1;rounded=0;entryX=0;entryY=0.5;entryDx=0;entryDy=0;" parent="1" target="6VGfn3pfcpzd_MSDmQnM-4" edge="1">
          <mxGeometry width="50" height="50" relative="1" as="geometry">
            <mxPoint x="390" y="145" as="sourcePoint" />
            <mxPoint x="501" y="154.68" as="targetPoint" />
          </mxGeometry>
        </mxCell>
        <mxCell id="6VGfn3pfcpzd_MSDmQnM-12" value="" style="endArrow=none;html=1;rounded=0;entryX=0;entryY=0.5;entryDx=0;entryDy=0;exitX=0;exitY=0.5;exitDx=0;exitDy=0;" parent="1" source="6VGfn3pfcpzd_MSDmQnM-19" target="6VGfn3pfcpzd_MSDmQnM-6" edge="1">
          <mxGeometry width="50" height="50" relative="1" as="geometry">
            <mxPoint x="90" y="440" as="sourcePoint" />
            <mxPoint x="489" y="170" as="targetPoint" />
            <Array as="points">
              <mxPoint x="90" y="455" />
              <mxPoint x="90" y="145" />
            </Array>
          </mxGeometry>
        </mxCell>
        <mxCell id="6VGfn3pfcpzd_MSDmQnM-13" value="Create new Role" style="ellipse;whiteSpace=wrap;html=1;" parent="1" vertex="1">
          <mxGeometry x="181" y="285" width="90" height="50" as="geometry" />
        </mxCell>
        <mxCell id="6VGfn3pfcpzd_MSDmQnM-14" value="Show all roles" style="ellipse;whiteSpace=wrap;html=1;" parent="1" vertex="1">
          <mxGeometry x="181" y="230" width="90" height="50" as="geometry" />
        </mxCell>
        <mxCell id="6VGfn3pfcpzd_MSDmQnM-15" value="" style="endArrow=none;html=1;rounded=0;exitX=0;exitY=0.5;exitDx=0;exitDy=0;" parent="1" edge="1">
          <mxGeometry width="50" height="50" relative="1" as="geometry">
            <mxPoint x="391" y="144.62" as="sourcePoint" />
            <mxPoint x="351" y="144.62" as="targetPoint" />
          </mxGeometry>
        </mxCell>
        <mxCell id="6VGfn3pfcpzd_MSDmQnM-16" value="" style="endArrow=none;html=1;rounded=0;" parent="1" edge="1">
          <mxGeometry width="50" height="50" relative="1" as="geometry">
            <mxPoint x="181" y="309.62" as="sourcePoint" />
            <mxPoint x="141" y="309.62" as="targetPoint" />
          </mxGeometry>
        </mxCell>
        <mxCell id="6VGfn3pfcpzd_MSDmQnM-17" value="" style="endArrow=none;html=1;rounded=0;entryX=0;entryY=0.5;entryDx=0;entryDy=0;" parent="1" target="6VGfn3pfcpzd_MSDmQnM-14" edge="1">
          <mxGeometry width="50" height="50" relative="1" as="geometry">
            <mxPoint x="141" y="310" as="sourcePoint" />
            <mxPoint x="141" y="250" as="targetPoint" />
            <Array as="points">
              <mxPoint x="141" y="255" />
            </Array>
          </mxGeometry>
        </mxCell>
        <mxCell id="6VGfn3pfcpzd_MSDmQnM-18" value="" style="endArrow=none;html=1;rounded=0;" parent="1" edge="1">
          <mxGeometry width="50" height="50" relative="1" as="geometry">
            <mxPoint x="141" y="285" as="sourcePoint" />
            <mxPoint x="90" y="285" as="targetPoint" />
          </mxGeometry>
        </mxCell>
        <mxCell id="6VGfn3pfcpzd_MSDmQnM-19" value="Review Pet Fostering" style="ellipse;whiteSpace=wrap;html=1;" parent="1" vertex="1">
          <mxGeometry x="140" y="430" width="110" height="50" as="geometry" />
        </mxCell>
        <mxCell id="6VGfn3pfcpzd_MSDmQnM-20" value="Approve Pet Fostering" style="ellipse;whiteSpace=wrap;html=1;" parent="1" vertex="1">
          <mxGeometry x="290" y="430" width="110" height="50" as="geometry" />
        </mxCell>
        <mxCell id="6VGfn3pfcpzd_MSDmQnM-21" value="Delete Pet&amp;nbsp;" style="ellipse;whiteSpace=wrap;html=1;" parent="1" vertex="1">
          <mxGeometry x="471" y="404" width="110" height="50" as="geometry" />
        </mxCell>
        <mxCell id="6VGfn3pfcpzd_MSDmQnM-22" value="" style="endArrow=none;html=1;rounded=0;" parent="1" edge="1">
          <mxGeometry width="50" height="50" relative="1" as="geometry">
            <mxPoint x="290" y="454.62" as="sourcePoint" />
            <mxPoint x="250" y="454.62" as="targetPoint" />
          </mxGeometry>
        </mxCell>
        <mxCell id="6VGfn3pfcpzd_MSDmQnM-23" value="" style="endArrow=none;html=1;rounded=0;" parent="1" edge="1">
          <mxGeometry width="50" height="50" relative="1" as="geometry">
            <mxPoint x="440" y="454.62" as="sourcePoint" />
            <mxPoint x="400" y="454.62" as="targetPoint" />
          </mxGeometry>
        </mxCell>
        <mxCell id="6VGfn3pfcpzd_MSDmQnM-24" value="Modify pet-foster and customer" style="ellipse;whiteSpace=wrap;html=1;" parent="1" vertex="1">
          <mxGeometry x="471" y="470" width="110" height="50" as="geometry" />
        </mxCell>
        <mxCell id="6VGfn3pfcpzd_MSDmQnM-25" value="Review Product Modification" style="ellipse;whiteSpace=wrap;html=1;" parent="1" vertex="1">
          <mxGeometry x="140" y="340" width="110" height="50" as="geometry" />
        </mxCell>
        <mxCell id="6VGfn3pfcpzd_MSDmQnM-26" value="" style="endArrow=none;html=1;rounded=0;" parent="1" edge="1">
          <mxGeometry width="50" height="50" relative="1" as="geometry">
            <mxPoint x="140" y="364.62" as="sourcePoint" />
            <mxPoint x="89" y="364.62" as="targetPoint" />
          </mxGeometry>
        </mxCell>
        <mxCell id="6VGfn3pfcpzd_MSDmQnM-27" value="Approve Product Modification" style="ellipse;whiteSpace=wrap;html=1;" parent="1" vertex="1">
          <mxGeometry x="290" y="340" width="110" height="50" as="geometry" />
        </mxCell>
        <mxCell id="6VGfn3pfcpzd_MSDmQnM-28" value="Edit product" style="ellipse;whiteSpace=wrap;html=1;" parent="1" vertex="1">
          <mxGeometry x="471" y="340" width="110" height="50" as="geometry" />
        </mxCell>
        <mxCell id="6VGfn3pfcpzd_MSDmQnM-29" value="" style="endArrow=none;html=1;rounded=0;" parent="1" edge="1">
          <mxGeometry width="50" height="50" relative="1" as="geometry">
            <mxPoint x="290" y="364.62" as="sourcePoint" />
            <mxPoint x="250" y="364.62" as="targetPoint" />
          </mxGeometry>
        </mxCell>
        <mxCell id="6VGfn3pfcpzd_MSDmQnM-30" value="" style="endArrow=none;html=1;rounded=0;exitX=0;exitY=0.5;exitDx=0;exitDy=0;" parent="1" source="6VGfn3pfcpzd_MSDmQnM-28" edge="1">
          <mxGeometry width="50" height="50" relative="1" as="geometry">
            <mxPoint x="440" y="364.62" as="sourcePoint" />
            <mxPoint x="400" y="364.62" as="targetPoint" />
          </mxGeometry>
        </mxCell>
        <mxCell id="6VGfn3pfcpzd_MSDmQnM-31" value="" style="endArrow=none;html=1;rounded=0;exitX=0;exitY=0.5;exitDx=0;exitDy=0;" parent="1" source="6VGfn3pfcpzd_MSDmQnM-24" edge="1">
          <mxGeometry width="50" height="50" relative="1" as="geometry">
            <mxPoint x="480" y="495" as="sourcePoint" />
            <mxPoint x="470" y="430" as="targetPoint" />
            <Array as="points">
              <mxPoint x="440" y="495" />
              <mxPoint x="440" y="430" />
            </Array>
          </mxGeometry>
        </mxCell>
        <mxCell id="6VGfn3pfcpzd_MSDmQnM-32" value="" style="endArrow=none;html=1;rounded=0;exitX=0.99;exitY=0.5;exitDx=0;exitDy=0;exitPerimeter=0;" parent="1" source="6VGfn3pfcpzd_MSDmQnM-1" edge="1">
          <mxGeometry width="50" height="50" relative="1" as="geometry">
            <mxPoint x="240" y="340" as="sourcePoint" />
            <mxPoint x="90" y="320" as="targetPoint" />
          </mxGeometry>
        </mxCell>
        <mxCell id="6VGfn3pfcpzd_MSDmQnM-33" value="" style="shape=mxgraph.cisco.people.standing_woman;html=1;pointerEvents=1;dashed=0;fillColor=#036897;strokeColor=#ffffff;strokeWidth=2;verticalLabelPosition=bottom;verticalAlign=top;align=center;outlineConnect=0;" parent="1" vertex="1">
          <mxGeometry x="26" y="652" width="32" height="90" as="geometry" />
        </mxCell>
        <mxCell id="6VGfn3pfcpzd_MSDmQnM-34" value="Customer" style="text;html=1;align=center;verticalAlign=middle;whiteSpace=wrap;rounded=0;" parent="1" vertex="1">
          <mxGeometry x="12" y="742" width="60" height="30" as="geometry" />
        </mxCell>
        <mxCell id="6VGfn3pfcpzd_MSDmQnM-35" value="" style="endArrow=none;html=1;rounded=0;entryX=0;entryY=0.5;entryDx=0;entryDy=0;exitX=0;exitY=0.5;exitDx=0;exitDy=0;" parent="1" source="6VGfn3pfcpzd_MSDmQnM-39" edge="1">
          <mxGeometry width="50" height="50" relative="1" as="geometry">
            <mxPoint x="150.0000000000025" y="955" as="sourcePoint" />
            <mxPoint x="141" y="645" as="targetPoint" />
            <Array as="points">
              <mxPoint x="100" y="819" />
              <mxPoint x="100" y="645" />
            </Array>
          </mxGeometry>
        </mxCell>
        <mxCell id="6VGfn3pfcpzd_MSDmQnM-36" value="Add product to wishlist" style="ellipse;whiteSpace=wrap;html=1;" parent="1" vertex="1">
          <mxGeometry x="440" y="642" width="90" height="50" as="geometry" />
        </mxCell>
        <mxCell id="6VGfn3pfcpzd_MSDmQnM-37" value="Add product to cart" style="ellipse;whiteSpace=wrap;html=1;" parent="1" vertex="1">
          <mxGeometry x="440" y="724" width="90" height="50" as="geometry" />
        </mxCell>
        <mxCell id="6VGfn3pfcpzd_MSDmQnM-38" value="Show all categories" style="ellipse;whiteSpace=wrap;html=1;" parent="1" vertex="1">
          <mxGeometry x="140" y="620" width="90" height="50" as="geometry" />
        </mxCell>
        <mxCell id="6VGfn3pfcpzd_MSDmQnM-39" value="Show all pets" style="ellipse;whiteSpace=wrap;html=1;" parent="1" vertex="1">
          <mxGeometry x="140" y="794" width="90" height="50" as="geometry" />
        </mxCell>
        <mxCell id="6VGfn3pfcpzd_MSDmQnM-40" value="Show all products" style="ellipse;whiteSpace=wrap;html=1;" parent="1" vertex="1">
          <mxGeometry x="140" y="692" width="90" height="50" as="geometry" />
        </mxCell>
        <mxCell id="6VGfn3pfcpzd_MSDmQnM-41" value="Modify Customer Wishlist" style="ellipse;whiteSpace=wrap;html=1;" parent="1" vertex="1">
          <mxGeometry x="570" y="644" width="90" height="50" as="geometry" />
        </mxCell>
        <mxCell id="6VGfn3pfcpzd_MSDmQnM-42" value="Select pet" style="ellipse;whiteSpace=wrap;html=1;" parent="1" vertex="1">
          <mxGeometry x="270" y="794" width="90" height="50" as="geometry" />
        </mxCell>
        <mxCell id="6VGfn3pfcpzd_MSDmQnM-43" value="Request&amp;nbsp; adoption" style="ellipse;whiteSpace=wrap;html=1;" parent="1" vertex="1">
          <mxGeometry x="400" y="794" width="90" height="50" as="geometry" />
        </mxCell>
        <mxCell id="6VGfn3pfcpzd_MSDmQnM-44" value="" style="endArrow=none;html=1;rounded=0;entryX=0;entryY=0.5;entryDx=0;entryDy=0;" parent="1" edge="1">
          <mxGeometry width="50" height="50" relative="1" as="geometry">
            <mxPoint x="530" y="669.9999999999999" as="sourcePoint" />
            <mxPoint x="570" y="669.9999999999999" as="targetPoint" />
          </mxGeometry>
        </mxCell>
        <mxCell id="6VGfn3pfcpzd_MSDmQnM-45" value="" style="endArrow=none;html=1;rounded=0;entryX=0;entryY=0.5;entryDx=0;entryDy=0;" parent="1" edge="1">
          <mxGeometry width="50" height="50" relative="1" as="geometry">
            <mxPoint x="100" y="720" as="sourcePoint" />
            <mxPoint x="140" y="720" as="targetPoint" />
          </mxGeometry>
        </mxCell>
        <mxCell id="6VGfn3pfcpzd_MSDmQnM-46" value="" style="endArrow=none;html=1;rounded=0;entryX=0;entryY=0.5;entryDx=0;entryDy=0;" parent="1" edge="1">
          <mxGeometry width="50" height="50" relative="1" as="geometry">
            <mxPoint x="230" y="818.7599999999999" as="sourcePoint" />
            <mxPoint x="270" y="818.7599999999999" as="targetPoint" />
          </mxGeometry>
        </mxCell>
        <mxCell id="6VGfn3pfcpzd_MSDmQnM-47" value="" style="endArrow=none;html=1;rounded=0;entryX=0;entryY=0.5;entryDx=0;entryDy=0;" parent="1" edge="1">
          <mxGeometry width="50" height="50" relative="1" as="geometry">
            <mxPoint x="360" y="818.7599999999999" as="sourcePoint" />
            <mxPoint x="400" y="818.7599999999999" as="targetPoint" />
          </mxGeometry>
        </mxCell>
        <mxCell id="6VGfn3pfcpzd_MSDmQnM-48" value="" style="shape=mxgraph.cisco.people.standing_woman;html=1;pointerEvents=1;dashed=0;fillColor=#036897;strokeColor=#ffffff;strokeWidth=2;verticalLabelPosition=bottom;verticalAlign=top;align=center;outlineConnect=0;" parent="1" vertex="1">
          <mxGeometry x="16" y="1040" width="32" height="90" as="geometry" />
        </mxCell>
        <mxCell id="6VGfn3pfcpzd_MSDmQnM-49" value="Seller" style="text;html=1;align=center;verticalAlign=middle;whiteSpace=wrap;rounded=0;" parent="1" vertex="1">
          <mxGeometry x="2" y="1130" width="60" height="30" as="geometry" />
        </mxCell>
        <mxCell id="6VGfn3pfcpzd_MSDmQnM-50" value="" style="endArrow=none;html=1;rounded=0;entryX=0;entryY=0.5;entryDx=0;entryDy=0;exitX=0;exitY=0.5;exitDx=0;exitDy=0;" parent="1" source="6VGfn3pfcpzd_MSDmQnM-81" edge="1">
          <mxGeometry width="50" height="50" relative="1" as="geometry">
            <mxPoint x="146" y="1275" as="sourcePoint" />
            <mxPoint x="141" y="1025" as="targetPoint" />
            <Array as="points">
              <mxPoint x="96" y="1170" />
              <mxPoint x="100" y="1025" />
            </Array>
          </mxGeometry>
        </mxCell>
        <mxCell id="6VGfn3pfcpzd_MSDmQnM-51" value="" style="endArrow=none;html=1;rounded=0;exitX=0.99;exitY=0.5;exitDx=0;exitDy=0;exitPerimeter=0;" parent="1" edge="1">
          <mxGeometry width="50" height="50" relative="1" as="geometry">
            <mxPoint x="57.99999999999995" y="1099.5" as="sourcePoint" />
            <mxPoint x="100.32" y="1100.5" as="targetPoint" />
          </mxGeometry>
        </mxCell>
        <mxCell id="6VGfn3pfcpzd_MSDmQnM-53" value="&lt;span style=&quot;font-size: 11px;&quot;&gt;Add new product to sell&lt;/span&gt;" style="ellipse;whiteSpace=wrap;html=1;" parent="1" vertex="1">
          <mxGeometry x="140" y="1000" width="126" height="60" as="geometry" />
        </mxCell>
        <mxCell id="6VGfn3pfcpzd_MSDmQnM-60" value="" style="endArrow=none;html=1;rounded=0;entryX=0;entryY=0.5;entryDx=0;entryDy=0;" parent="1" edge="1">
          <mxGeometry width="50" height="50" relative="1" as="geometry">
            <mxPoint x="100" y="1100" as="sourcePoint" />
            <mxPoint x="140" y="1100" as="targetPoint" />
          </mxGeometry>
        </mxCell>
        <mxCell id="6VGfn3pfcpzd_MSDmQnM-63" value="Select product" style="ellipse;whiteSpace=wrap;html=1;" parent="1" vertex="1">
          <mxGeometry x="271" y="692" width="90" height="50" as="geometry" />
        </mxCell>
        <mxCell id="6VGfn3pfcpzd_MSDmQnM-64" value="" style="endArrow=none;html=1;rounded=0;entryX=0;entryY=0.5;entryDx=0;entryDy=0;" parent="1" edge="1">
          <mxGeometry width="50" height="50" relative="1" as="geometry">
            <mxPoint x="231" y="720" as="sourcePoint" />
            <mxPoint x="271" y="720" as="targetPoint" />
          </mxGeometry>
        </mxCell>
        <mxCell id="6VGfn3pfcpzd_MSDmQnM-65" value="" style="endArrow=none;html=1;rounded=0;entryX=0;entryY=0.5;entryDx=0;entryDy=0;" parent="1" edge="1">
          <mxGeometry width="50" height="50" relative="1" as="geometry">
            <mxPoint x="400" y="748.64" as="sourcePoint" />
            <mxPoint x="440" y="748.64" as="targetPoint" />
          </mxGeometry>
        </mxCell>
        <mxCell id="6VGfn3pfcpzd_MSDmQnM-66" value="" style="endArrow=none;html=1;rounded=0;" parent="1" edge="1">
          <mxGeometry width="50" height="50" relative="1" as="geometry">
            <mxPoint x="400" y="670" as="sourcePoint" />
            <mxPoint x="400" y="750" as="targetPoint" />
          </mxGeometry>
        </mxCell>
        <mxCell id="6VGfn3pfcpzd_MSDmQnM-67" value="" style="endArrow=none;html=1;rounded=0;exitX=1;exitY=0.5;exitDx=0;exitDy=0;" parent="1" source="6VGfn3pfcpzd_MSDmQnM-63" edge="1">
          <mxGeometry width="50" height="50" relative="1" as="geometry">
            <mxPoint x="311" y="693" as="sourcePoint" />
            <mxPoint x="400" y="716" as="targetPoint" />
          </mxGeometry>
        </mxCell>
        <mxCell id="6VGfn3pfcpzd_MSDmQnM-68" value="Buy product" style="ellipse;whiteSpace=wrap;html=1;" parent="1" vertex="1">
          <mxGeometry x="570" y="724" width="90" height="50" as="geometry" />
        </mxCell>
        <mxCell id="6VGfn3pfcpzd_MSDmQnM-69" value="Modify product quantity" style="ellipse;whiteSpace=wrap;html=1;" parent="1" vertex="1">
          <mxGeometry x="720" y="659" width="90" height="50" as="geometry" />
        </mxCell>
        <mxCell id="6VGfn3pfcpzd_MSDmQnM-70" value="" style="endArrow=none;html=1;rounded=0;entryX=0;entryY=0.5;entryDx=0;entryDy=0;" parent="1" edge="1">
          <mxGeometry width="50" height="50" relative="1" as="geometry">
            <mxPoint x="530" y="748.5799999999999" as="sourcePoint" />
            <mxPoint x="570" y="748.5799999999999" as="targetPoint" />
          </mxGeometry>
        </mxCell>
        <mxCell id="6VGfn3pfcpzd_MSDmQnM-71" value="" style="endArrow=none;html=1;rounded=0;entryX=0;entryY=0.5;entryDx=0;entryDy=0;" parent="1" edge="1">
          <mxGeometry width="50" height="50" relative="1" as="geometry">
            <mxPoint x="660" y="748.8" as="sourcePoint" />
            <mxPoint x="700" y="748.8" as="targetPoint" />
          </mxGeometry>
        </mxCell>
        <mxCell id="6VGfn3pfcpzd_MSDmQnM-72" value="&lt;font style=&quot;font-size: 11px;&quot;&gt;Edit details for existing owned product&lt;/font&gt;" style="ellipse;whiteSpace=wrap;html=1;" parent="1" vertex="1">
          <mxGeometry x="141" y="1070" width="126" height="60" as="geometry" />
        </mxCell>
        <mxCell id="6VGfn3pfcpzd_MSDmQnM-74" value="" style="endArrow=none;html=1;rounded=0;entryX=0;entryY=0.5;entryDx=0;entryDy=0;" parent="1" edge="1">
          <mxGeometry width="50" height="50" relative="1" as="geometry">
            <mxPoint x="266" y="1030" as="sourcePoint" />
            <mxPoint x="306" y="1030" as="targetPoint" />
          </mxGeometry>
        </mxCell>
        <mxCell id="6VGfn3pfcpzd_MSDmQnM-75" value="&amp;nbsp; Modify&amp;nbsp; balance seller" style="ellipse;whiteSpace=wrap;html=1;" parent="1" vertex="1">
          <mxGeometry x="720" y="724" width="90" height="50" as="geometry" />
        </mxCell>
        <mxCell id="6VGfn3pfcpzd_MSDmQnM-76" value="&amp;nbsp; Modify&amp;nbsp; balance customer" style="ellipse;whiteSpace=wrap;html=1;" parent="1" vertex="1">
          <mxGeometry x="720" y="787" width="90" height="50" as="geometry" />
        </mxCell>
        <mxCell id="6VGfn3pfcpzd_MSDmQnM-77" value="" style="endArrow=none;html=1;rounded=0;entryX=0;entryY=0.5;entryDx=0;entryDy=0;" parent="1" target="6VGfn3pfcpzd_MSDmQnM-69" edge="1">
          <mxGeometry width="50" height="50" relative="1" as="geometry">
            <mxPoint x="700" y="750" as="sourcePoint" />
            <mxPoint x="550" y="720" as="targetPoint" />
            <Array as="points">
              <mxPoint x="700" y="684" />
            </Array>
          </mxGeometry>
        </mxCell>
        <mxCell id="6VGfn3pfcpzd_MSDmQnM-78" value="" style="endArrow=none;html=1;rounded=0;entryX=-0.048;entryY=0.4;entryDx=0;entryDy=0;entryPerimeter=0;" parent="1" target="6VGfn3pfcpzd_MSDmQnM-76" edge="1">
          <mxGeometry width="50" height="50" relative="1" as="geometry">
            <mxPoint x="700" y="750" as="sourcePoint" />
            <mxPoint x="550" y="720" as="targetPoint" />
            <Array as="points">
              <mxPoint x="700" y="807" />
            </Array>
          </mxGeometry>
        </mxCell>
        <mxCell id="6VGfn3pfcpzd_MSDmQnM-79" value="" style="endArrow=none;html=1;rounded=0;entryX=0;entryY=0.5;entryDx=0;entryDy=0;" parent="1" edge="1">
          <mxGeometry width="50" height="50" relative="1" as="geometry">
            <mxPoint x="700" y="749" as="sourcePoint" />
            <mxPoint x="720" y="749" as="targetPoint" />
          </mxGeometry>
        </mxCell>
        <mxCell id="6VGfn3pfcpzd_MSDmQnM-80" value="" style="endArrow=none;html=1;rounded=0;entryX=0;entryY=0.5;entryDx=0;entryDy=0;" parent="1" edge="1">
          <mxGeometry width="50" height="50" relative="1" as="geometry">
            <mxPoint x="400" y="669.9999999999999" as="sourcePoint" />
            <mxPoint x="440" y="669.9999999999999" as="targetPoint" />
          </mxGeometry>
        </mxCell>
        <mxCell id="6VGfn3pfcpzd_MSDmQnM-81" value="&lt;span style=&quot;font-size: 11px;&quot;&gt;Remove product to sell&lt;/span&gt;" style="ellipse;whiteSpace=wrap;html=1;" parent="1" vertex="1">
          <mxGeometry x="141" y="1140" width="126" height="60" as="geometry" />
        </mxCell>
        <mxCell id="6VGfn3pfcpzd_MSDmQnM-82" value="&lt;font style=&quot;font-size: 11px;&quot;&gt;Create new product&amp;nbsp;&lt;/font&gt;" style="ellipse;whiteSpace=wrap;html=1;" parent="1" vertex="1">
          <mxGeometry x="296" y="1000" width="126" height="60" as="geometry" />
        </mxCell>
        <mxCell id="RNzjiq7RGU9ZO7bDfqUR-1" value="" style="shape=mxgraph.cisco.people.standing_woman;html=1;pointerEvents=1;dashed=0;fillColor=#036897;strokeColor=#ffffff;strokeWidth=2;verticalLabelPosition=bottom;verticalAlign=top;align=center;outlineConnect=0;" parent="1" vertex="1">
          <mxGeometry x="14" y="1300" width="32" height="90" as="geometry" />
        </mxCell>
        <mxCell id="RNzjiq7RGU9ZO7bDfqUR-2" value="Pet Foster" style="text;html=1;align=center;verticalAlign=middle;whiteSpace=wrap;rounded=0;" parent="1" vertex="1">
          <mxGeometry y="1390" width="60" height="30" as="geometry" />
        </mxCell>
        <mxCell id="RNzjiq7RGU9ZO7bDfqUR-3" value="" style="endArrow=none;html=1;rounded=0;entryX=0;entryY=0.5;entryDx=0;entryDy=0;exitX=0;exitY=0.5;exitDx=0;exitDy=0;" parent="1" source="RNzjiq7RGU9ZO7bDfqUR-9" edge="1">
          <mxGeometry width="50" height="50" relative="1" as="geometry">
            <mxPoint x="144" y="1535" as="sourcePoint" />
            <mxPoint x="139" y="1285" as="targetPoint" />
            <Array as="points">
              <mxPoint x="98" y="1510" />
              <mxPoint x="98" y="1285" />
            </Array>
          </mxGeometry>
        </mxCell>
        <mxCell id="RNzjiq7RGU9ZO7bDfqUR-4" value="" style="endArrow=none;html=1;rounded=0;exitX=0.99;exitY=0.5;exitDx=0;exitDy=0;exitPerimeter=0;" parent="1" edge="1">
          <mxGeometry width="50" height="50" relative="1" as="geometry">
            <mxPoint x="55.99999999999994" y="1359.5" as="sourcePoint" />
            <mxPoint x="98.32" y="1360.5" as="targetPoint" />
          </mxGeometry>
        </mxCell>
        <mxCell id="RNzjiq7RGU9ZO7bDfqUR-5" value="&lt;span style=&quot;font-size: 11px;&quot;&gt;Add new pet for addoption&lt;/span&gt;" style="ellipse;whiteSpace=wrap;html=1;" parent="1" vertex="1">
          <mxGeometry x="138" y="1260" width="126" height="60" as="geometry" />
        </mxCell>
        <mxCell id="RNzjiq7RGU9ZO7bDfqUR-6" value="" style="endArrow=none;html=1;rounded=0;entryX=0;entryY=0.5;entryDx=0;entryDy=0;" parent="1" edge="1">
          <mxGeometry width="50" height="50" relative="1" as="geometry">
            <mxPoint x="98" y="1360" as="sourcePoint" />
            <mxPoint x="138" y="1360" as="targetPoint" />
          </mxGeometry>
        </mxCell>
        <mxCell id="RNzjiq7RGU9ZO7bDfqUR-7" value="&lt;font style=&quot;font-size: 11px;&quot;&gt;Edit details for existing pet&amp;nbsp;&lt;/font&gt;" style="ellipse;whiteSpace=wrap;html=1;" parent="1" vertex="1">
          <mxGeometry x="139" y="1330" width="126" height="60" as="geometry" />
        </mxCell>
        <mxCell id="RNzjiq7RGU9ZO7bDfqUR-9" value="&lt;span style=&quot;font-size: 11px;&quot;&gt;Give pet for adoption&lt;/span&gt;" style="ellipse;whiteSpace=wrap;html=1;" parent="1" vertex="1">
          <mxGeometry x="138" y="1480" width="126" height="60" as="geometry" />
        </mxCell>
        <mxCell id="RNzjiq7RGU9ZO7bDfqUR-11" value="&lt;span style=&quot;font-size: 11px;&quot;&gt;Remove pet&lt;/span&gt;" style="ellipse;whiteSpace=wrap;html=1;" parent="1" vertex="1">
          <mxGeometry x="305" y="1480" width="126" height="60" as="geometry" />
        </mxCell>
        <mxCell id="RNzjiq7RGU9ZO7bDfqUR-13" value="" style="endArrow=none;html=1;rounded=0;entryX=0;entryY=0.5;entryDx=0;entryDy=0;" parent="1" edge="1">
          <mxGeometry width="50" height="50" relative="1" as="geometry">
            <mxPoint x="264" y="1509.6" as="sourcePoint" />
            <mxPoint x="304" y="1509.6" as="targetPoint" />
          </mxGeometry>
        </mxCell>
        <mxCell id="RNzjiq7RGU9ZO7bDfqUR-14" value="&lt;span style=&quot;font-size: 11px;&quot;&gt;See all pets given for adoption&lt;/span&gt;" style="ellipse;whiteSpace=wrap;html=1;" parent="1" vertex="1">
          <mxGeometry x="135" y="1410" width="126" height="60" as="geometry" />
        </mxCell>
        <mxCell id="RNzjiq7RGU9ZO7bDfqUR-15" value="" style="endArrow=none;html=1;rounded=0;entryX=0;entryY=0.5;entryDx=0;entryDy=0;" parent="1" edge="1">
          <mxGeometry width="50" height="50" relative="1" as="geometry">
            <mxPoint x="98" y="1439.6" as="sourcePoint" />
            <mxPoint x="138" y="1439.6" as="targetPoint" />
          </mxGeometry>
        </mxCell>
        <mxCell id="KaNdL51t5YliKk2mCfF1-2" value="" style="endArrow=none;html=1;rounded=0;exitX=0.99;exitY=0.5;exitDx=0;exitDy=0;exitPerimeter=0;" edge="1" parent="1">
          <mxGeometry width="50" height="50" relative="1" as="geometry">
            <mxPoint x="58" y="716.5" as="sourcePoint" />
            <mxPoint x="100" y="717.5" as="targetPoint" />
          </mxGeometry>
        </mxCell>
        <mxCell id="KaNdL51t5YliKk2mCfF1-3" value="Delete User" style="ellipse;whiteSpace=wrap;html=1;" vertex="1" parent="1">
          <mxGeometry x="478" y="1834" width="90" height="50" as="geometry" />
        </mxCell>
        <mxCell id="KaNdL51t5YliKk2mCfF1-4" value="Edit User" style="ellipse;whiteSpace=wrap;html=1;" vertex="1" parent="1">
          <mxGeometry x="478" y="1899" width="90" height="50" as="geometry" />
        </mxCell>
        <mxCell id="KaNdL51t5YliKk2mCfF1-5" value="Show all users" style="ellipse;whiteSpace=wrap;html=1;" vertex="1" parent="1">
          <mxGeometry x="208" y="1869" width="90" height="50" as="geometry" />
        </mxCell>
        <mxCell id="KaNdL51t5YliKk2mCfF1-6" value="Select user" style="ellipse;whiteSpace=wrap;html=1;" vertex="1" parent="1">
          <mxGeometry x="328" y="1869" width="90" height="50" as="geometry" />
        </mxCell>
        <mxCell id="KaNdL51t5YliKk2mCfF1-7" value="" style="endArrow=none;html=1;rounded=0;entryX=1.055;entryY=0.455;entryDx=0;entryDy=0;entryPerimeter=0;" edge="1" parent="1" target="KaNdL51t5YliKk2mCfF1-5">
          <mxGeometry width="50" height="50" relative="1" as="geometry">
            <mxPoint x="329" y="1892" as="sourcePoint" />
            <mxPoint x="529" y="1839" as="targetPoint" />
          </mxGeometry>
        </mxCell>
        <mxCell id="KaNdL51t5YliKk2mCfF1-8" value="" style="endArrow=none;html=1;rounded=0;entryX=-0.013;entryY=0.427;entryDx=0;entryDy=0;entryPerimeter=0;" edge="1" parent="1" target="KaNdL51t5YliKk2mCfF1-4">
          <mxGeometry width="50" height="50" relative="1" as="geometry">
            <mxPoint x="458" y="1889" as="sourcePoint" />
            <mxPoint x="488" y="1929" as="targetPoint" />
            <Array as="points">
              <mxPoint x="458" y="1919" />
            </Array>
          </mxGeometry>
        </mxCell>
        <mxCell id="KaNdL51t5YliKk2mCfF1-9" value="" style="endArrow=none;html=1;rounded=0;entryX=0;entryY=0.5;entryDx=0;entryDy=0;" edge="1" parent="1" target="KaNdL51t5YliKk2mCfF1-3">
          <mxGeometry width="50" height="50" relative="1" as="geometry">
            <mxPoint x="458" y="1894" as="sourcePoint" />
            <mxPoint x="569" y="1903.68" as="targetPoint" />
            <Array as="points">
              <mxPoint x="458" y="1859" />
            </Array>
          </mxGeometry>
        </mxCell>
        <mxCell id="KaNdL51t5YliKk2mCfF1-10" value="" style="endArrow=none;html=1;rounded=0;exitX=0;exitY=0.5;exitDx=0;exitDy=0;" edge="1" parent="1">
          <mxGeometry width="50" height="50" relative="1" as="geometry">
            <mxPoint x="459" y="1893.62" as="sourcePoint" />
            <mxPoint x="419" y="1893.62" as="targetPoint" />
          </mxGeometry>
        </mxCell>
        <mxCell id="KaNdL51t5YliKk2mCfF1-11" value="" style="shape=mxgraph.cisco.people.standing_woman;html=1;pointerEvents=1;dashed=0;fillColor=#036897;strokeColor=#ffffff;strokeWidth=2;verticalLabelPosition=bottom;verticalAlign=top;align=center;outlineConnect=0;" vertex="1" parent="1">
          <mxGeometry x="74" y="1840" width="32" height="90" as="geometry" />
        </mxCell>
        <mxCell id="KaNdL51t5YliKk2mCfF1-12" value="Admin" style="text;html=1;align=center;verticalAlign=middle;whiteSpace=wrap;rounded=0;" vertex="1" parent="1">
          <mxGeometry x="60" y="1930" width="60" height="30" as="geometry" />
        </mxCell>
        <mxCell id="KaNdL51t5YliKk2mCfF1-13" value="" style="endArrow=none;html=1;rounded=0;entryX=0;entryY=0.5;entryDx=0;entryDy=0;exitX=0;exitY=0.5;exitDx=0;exitDy=0;" edge="1" parent="1" source="KaNdL51t5YliKk2mCfF1-5" target="KaNdL51t5YliKk2mCfF1-14">
          <mxGeometry width="50" height="50" relative="1" as="geometry">
            <mxPoint x="199" y="1896" as="sourcePoint" />
            <mxPoint x="164" y="1896" as="targetPoint" />
            <Array as="points">
              <mxPoint x="148" y="1894" />
              <mxPoint x="148" y="1992" />
            </Array>
          </mxGeometry>
        </mxCell>
        <mxCell id="KaNdL51t5YliKk2mCfF1-14" value="Search User" style="ellipse;whiteSpace=wrap;html=1;" vertex="1" parent="1">
          <mxGeometry x="208" y="1967" width="90" height="50" as="geometry" />
        </mxCell>
        <mxCell id="KaNdL51t5YliKk2mCfF1-15" value="Delete User" style="ellipse;whiteSpace=wrap;html=1;" vertex="1" parent="1">
          <mxGeometry x="358" y="1930" width="90" height="50" as="geometry" />
        </mxCell>
        <mxCell id="KaNdL51t5YliKk2mCfF1-16" value="Edit User" style="ellipse;whiteSpace=wrap;html=1;" vertex="1" parent="1">
          <mxGeometry x="358" y="1995" width="90" height="50" as="geometry" />
        </mxCell>
        <mxCell id="KaNdL51t5YliKk2mCfF1-17" value="" style="endArrow=none;html=1;rounded=0;entryX=-0.013;entryY=0.427;entryDx=0;entryDy=0;entryPerimeter=0;" edge="1" parent="1" target="KaNdL51t5YliKk2mCfF1-16">
          <mxGeometry width="50" height="50" relative="1" as="geometry">
            <mxPoint x="338" y="1985" as="sourcePoint" />
            <mxPoint x="368" y="2025" as="targetPoint" />
            <Array as="points">
              <mxPoint x="338" y="2015" />
            </Array>
          </mxGeometry>
        </mxCell>
        <mxCell id="KaNdL51t5YliKk2mCfF1-18" value="" style="endArrow=none;html=1;rounded=0;entryX=0;entryY=0.5;entryDx=0;entryDy=0;" edge="1" parent="1" target="KaNdL51t5YliKk2mCfF1-15">
          <mxGeometry width="50" height="50" relative="1" as="geometry">
            <mxPoint x="338" y="1990" as="sourcePoint" />
            <mxPoint x="449" y="1999.68" as="targetPoint" />
            <Array as="points">
              <mxPoint x="338" y="1955" />
            </Array>
          </mxGeometry>
        </mxCell>
        <mxCell id="KaNdL51t5YliKk2mCfF1-19" value="" style="endArrow=none;html=1;rounded=0;exitX=0;exitY=0.5;exitDx=0;exitDy=0;" edge="1" parent="1">
          <mxGeometry width="50" height="50" relative="1" as="geometry">
            <mxPoint x="339" y="1989.62" as="sourcePoint" />
            <mxPoint x="299" y="1989.62" as="targetPoint" />
          </mxGeometry>
        </mxCell>
        <mxCell id="KaNdL51t5YliKk2mCfF1-20" value="Log in" style="ellipse;whiteSpace=wrap;html=1;" vertex="1" parent="1">
          <mxGeometry x="208" y="1790" width="90" height="50" as="geometry" />
        </mxCell>
        <mxCell id="KaNdL51t5YliKk2mCfF1-21" value="" style="endArrow=none;html=1;rounded=0;exitX=0;exitY=0.5;exitDx=0;exitDy=0;" edge="1" parent="1">
          <mxGeometry width="50" height="50" relative="1" as="geometry">
            <mxPoint x="208" y="1821" as="sourcePoint" />
            <mxPoint x="148" y="1919" as="targetPoint" />
            <Array as="points">
              <mxPoint x="148" y="1821" />
              <mxPoint x="148" y="1919" />
              <mxPoint x="148" y="1889" />
            </Array>
          </mxGeometry>
        </mxCell>
        <mxCell id="KaNdL51t5YliKk2mCfF1-22" value="" style="endArrow=none;html=1;rounded=0;" edge="1" parent="1">
          <mxGeometry width="50" height="50" relative="1" as="geometry">
            <mxPoint x="118" y="1894" as="sourcePoint" />
            <mxPoint x="148" y="1894" as="targetPoint" />
            <Array as="points">
              <mxPoint x="128" y="1894" />
            </Array>
          </mxGeometry>
        </mxCell>
        <mxCell id="KaNdL51t5YliKk2mCfF1-23" value="admin - users operations&lt;div&gt;&lt;br&gt;&lt;/div&gt;" style="text;html=1;align=center;verticalAlign=middle;resizable=0;points=[];autosize=1;strokeColor=none;fillColor=none;" vertex="1" parent="1">
          <mxGeometry x="2" y="1730" width="160" height="40" as="geometry" />
        </mxCell>
        <mxCell id="KaNdL51t5YliKk2mCfF1-25" value="" style="shape=mxgraph.cisco.people.standing_woman;html=1;pointerEvents=1;dashed=0;fillColor=#036897;strokeColor=#ffffff;strokeWidth=2;verticalLabelPosition=bottom;verticalAlign=top;align=center;outlineConnect=0;" vertex="1" parent="1">
          <mxGeometry x="664" y="1824" width="32" height="90" as="geometry" />
        </mxCell>
        <mxCell id="KaNdL51t5YliKk2mCfF1-26" value="Admin" style="text;html=1;align=center;verticalAlign=middle;whiteSpace=wrap;rounded=0;" vertex="1" parent="1">
          <mxGeometry x="650" y="1914" width="60" height="30" as="geometry" />
        </mxCell>
        <mxCell id="KaNdL51t5YliKk2mCfF1-27" value="" style="endArrow=none;html=1;rounded=0;entryX=0;entryY=0.5;entryDx=0;entryDy=0;exitX=0;exitY=0.5;exitDx=0;exitDy=0;" edge="1" parent="1">
          <mxGeometry width="50" height="50" relative="1" as="geometry">
            <mxPoint x="798" y="1827" as="sourcePoint" />
            <mxPoint x="798" y="1925" as="targetPoint" />
            <Array as="points">
              <mxPoint x="738" y="1827" />
              <mxPoint x="738" y="1925" />
            </Array>
          </mxGeometry>
        </mxCell>
        <mxCell id="KaNdL51t5YliKk2mCfF1-28" value="Log in" style="ellipse;whiteSpace=wrap;html=1;" vertex="1" parent="1">
          <mxGeometry x="798" y="1803" width="90" height="50" as="geometry" />
        </mxCell>
        <mxCell id="KaNdL51t5YliKk2mCfF1-29" value="Create new Role" style="ellipse;whiteSpace=wrap;html=1;" vertex="1" parent="1">
          <mxGeometry x="838" y="1930" width="90" height="50" as="geometry" />
        </mxCell>
        <mxCell id="KaNdL51t5YliKk2mCfF1-30" value="Show all roles" style="ellipse;whiteSpace=wrap;html=1;" vertex="1" parent="1">
          <mxGeometry x="838" y="1875" width="90" height="50" as="geometry" />
        </mxCell>
        <mxCell id="KaNdL51t5YliKk2mCfF1-31" value="" style="endArrow=none;html=1;rounded=0;" edge="1" parent="1">
          <mxGeometry width="50" height="50" relative="1" as="geometry">
            <mxPoint x="838" y="1954.62" as="sourcePoint" />
            <mxPoint x="798" y="1954.62" as="targetPoint" />
          </mxGeometry>
        </mxCell>
        <mxCell id="KaNdL51t5YliKk2mCfF1-32" value="" style="endArrow=none;html=1;rounded=0;entryX=0;entryY=0.5;entryDx=0;entryDy=0;" edge="1" parent="1" target="KaNdL51t5YliKk2mCfF1-30">
          <mxGeometry width="50" height="50" relative="1" as="geometry">
            <mxPoint x="798" y="1955" as="sourcePoint" />
            <mxPoint x="798" y="1895" as="targetPoint" />
            <Array as="points">
              <mxPoint x="798" y="1900" />
            </Array>
          </mxGeometry>
        </mxCell>
        <mxCell id="KaNdL51t5YliKk2mCfF1-33" value="" style="endArrow=none;html=1;rounded=0;" edge="1" parent="1">
          <mxGeometry width="50" height="50" relative="1" as="geometry">
            <mxPoint x="708" y="1876" as="sourcePoint" />
            <mxPoint x="738" y="1876" as="targetPoint" />
            <Array as="points">
              <mxPoint x="718" y="1876" />
            </Array>
          </mxGeometry>
        </mxCell>
        <mxCell id="KaNdL51t5YliKk2mCfF1-53" value="" style="shape=mxgraph.cisco.people.standing_woman;html=1;pointerEvents=1;dashed=0;fillColor=#036897;strokeColor=#ffffff;strokeWidth=2;verticalLabelPosition=bottom;verticalAlign=top;align=center;outlineConnect=0;" vertex="1" parent="1">
          <mxGeometry x="987" y="1773.5" width="32" height="90" as="geometry" />
        </mxCell>
        <mxCell id="KaNdL51t5YliKk2mCfF1-54" value="Admin" style="text;html=1;align=center;verticalAlign=middle;whiteSpace=wrap;rounded=0;" vertex="1" parent="1">
          <mxGeometry x="980" y="1901" width="60" height="30" as="geometry" />
        </mxCell>
        <mxCell id="KaNdL51t5YliKk2mCfF1-55" value="" style="endArrow=none;html=1;rounded=0;exitX=0;exitY=0.5;exitDx=0;exitDy=0;" edge="1" parent="1">
          <mxGeometry width="50" height="50" relative="1" as="geometry">
            <mxPoint x="1121" y="1776.5" as="sourcePoint" />
            <mxPoint x="1121" y="1903.5" as="targetPoint" />
            <Array as="points">
              <mxPoint x="1061" y="1776.5" />
              <mxPoint x="1061" y="1903.5" />
            </Array>
          </mxGeometry>
        </mxCell>
        <mxCell id="KaNdL51t5YliKk2mCfF1-56" value="Log in" style="ellipse;whiteSpace=wrap;html=1;" vertex="1" parent="1">
          <mxGeometry x="1121" y="1752.5" width="90" height="50" as="geometry" />
        </mxCell>
        <mxCell id="KaNdL51t5YliKk2mCfF1-57" value="" style="endArrow=none;html=1;rounded=0;exitX=0;exitY=0.5;exitDx=0;exitDy=0;" edge="1" parent="1" source="KaNdL51t5YliKk2mCfF1-60">
          <mxGeometry width="50" height="50" relative="1" as="geometry">
            <mxPoint x="1161" y="1904.12" as="sourcePoint" />
            <mxPoint x="1121" y="1943.5" as="targetPoint" />
          </mxGeometry>
        </mxCell>
        <mxCell id="KaNdL51t5YliKk2mCfF1-58" value="" style="endArrow=none;html=1;rounded=0;entryX=0;entryY=0.5;entryDx=0;entryDy=0;" edge="1" parent="1">
          <mxGeometry width="50" height="50" relative="1" as="geometry">
            <mxPoint x="1121" y="2112.5" as="sourcePoint" />
            <mxPoint x="1161" y="1849.5" as="targetPoint" />
            <Array as="points">
              <mxPoint x="1121" y="1849.5" />
            </Array>
          </mxGeometry>
        </mxCell>
        <mxCell id="KaNdL51t5YliKk2mCfF1-59" value="" style="endArrow=none;html=1;rounded=0;" edge="1" parent="1">
          <mxGeometry width="50" height="50" relative="1" as="geometry">
            <mxPoint x="1031" y="1835.5" as="sourcePoint" />
            <mxPoint x="1061" y="1835.5" as="targetPoint" />
            <Array as="points">
              <mxPoint x="1041" y="1835.5" />
            </Array>
          </mxGeometry>
        </mxCell>
        <mxCell id="KaNdL51t5YliKk2mCfF1-60" value="Review Pet Fostering" style="ellipse;whiteSpace=wrap;html=1;" vertex="1" parent="1">
          <mxGeometry x="1161" y="1919.5" width="110" height="50" as="geometry" />
        </mxCell>
        <mxCell id="KaNdL51t5YliKk2mCfF1-61" value="Approve Pet Fostering" style="ellipse;whiteSpace=wrap;html=1;" vertex="1" parent="1">
          <mxGeometry x="1311" y="1919.5" width="110" height="50" as="geometry" />
        </mxCell>
        <mxCell id="KaNdL51t5YliKk2mCfF1-62" value="Delete Pet&amp;nbsp;" style="ellipse;whiteSpace=wrap;html=1;" vertex="1" parent="1">
          <mxGeometry x="1492" y="1893.5" width="110" height="50" as="geometry" />
        </mxCell>
        <mxCell id="KaNdL51t5YliKk2mCfF1-63" value="" style="endArrow=none;html=1;rounded=0;" edge="1" parent="1">
          <mxGeometry width="50" height="50" relative="1" as="geometry">
            <mxPoint x="1311" y="1944.12" as="sourcePoint" />
            <mxPoint x="1271" y="1944.12" as="targetPoint" />
          </mxGeometry>
        </mxCell>
        <mxCell id="KaNdL51t5YliKk2mCfF1-64" value="" style="endArrow=none;html=1;rounded=0;" edge="1" parent="1">
          <mxGeometry width="50" height="50" relative="1" as="geometry">
            <mxPoint x="1461" y="1944.12" as="sourcePoint" />
            <mxPoint x="1421" y="1944.12" as="targetPoint" />
          </mxGeometry>
        </mxCell>
        <mxCell id="KaNdL51t5YliKk2mCfF1-65" value="Modify pet-foster and customer" style="ellipse;whiteSpace=wrap;html=1;" vertex="1" parent="1">
          <mxGeometry x="1492" y="1959.5" width="110" height="50" as="geometry" />
        </mxCell>
        <mxCell id="KaNdL51t5YliKk2mCfF1-66" value="Review Product Modification" style="ellipse;whiteSpace=wrap;html=1;" vertex="1" parent="1">
          <mxGeometry x="1161" y="1823.5" width="110" height="50" as="geometry" />
        </mxCell>
        <mxCell id="KaNdL51t5YliKk2mCfF1-67" value="Approve Product Modification" style="ellipse;whiteSpace=wrap;html=1;" vertex="1" parent="1">
          <mxGeometry x="1311" y="1823.5" width="110" height="50" as="geometry" />
        </mxCell>
        <mxCell id="KaNdL51t5YliKk2mCfF1-68" value="Edit product" style="ellipse;whiteSpace=wrap;html=1;" vertex="1" parent="1">
          <mxGeometry x="1492" y="1823.5" width="110" height="50" as="geometry" />
        </mxCell>
        <mxCell id="KaNdL51t5YliKk2mCfF1-69" value="" style="endArrow=none;html=1;rounded=0;" edge="1" parent="1">
          <mxGeometry width="50" height="50" relative="1" as="geometry">
            <mxPoint x="1311" y="1848.12" as="sourcePoint" />
            <mxPoint x="1271" y="1848.12" as="targetPoint" />
          </mxGeometry>
        </mxCell>
        <mxCell id="KaNdL51t5YliKk2mCfF1-70" value="" style="endArrow=none;html=1;rounded=0;exitX=0;exitY=0.5;exitDx=0;exitDy=0;" edge="1" parent="1" source="KaNdL51t5YliKk2mCfF1-68">
          <mxGeometry width="50" height="50" relative="1" as="geometry">
            <mxPoint x="1461" y="1848.12" as="sourcePoint" />
            <mxPoint x="1421" y="1848.12" as="targetPoint" />
          </mxGeometry>
        </mxCell>
        <mxCell id="KaNdL51t5YliKk2mCfF1-71" value="" style="endArrow=none;html=1;rounded=0;exitX=0;exitY=0.5;exitDx=0;exitDy=0;" edge="1" parent="1" source="KaNdL51t5YliKk2mCfF1-65">
          <mxGeometry width="50" height="50" relative="1" as="geometry">
            <mxPoint x="1501" y="1984.5" as="sourcePoint" />
            <mxPoint x="1491" y="1919.5" as="targetPoint" />
            <Array as="points">
              <mxPoint x="1461" y="1984.5" />
              <mxPoint x="1461" y="1919.5" />
            </Array>
          </mxGeometry>
        </mxCell>
        <mxCell id="KaNdL51t5YliKk2mCfF1-72" value="admin - role operations&lt;div&gt;&lt;br&gt;&lt;/div&gt;" style="text;html=1;align=center;verticalAlign=middle;resizable=0;points=[];autosize=1;strokeColor=none;fillColor=none;" vertex="1" parent="1">
          <mxGeometry x="625" y="1710" width="150" height="40" as="geometry" />
        </mxCell>
        <mxCell id="KaNdL51t5YliKk2mCfF1-73" value="admin -&amp;nbsp; requests&lt;div&gt;&lt;br&gt;&lt;/div&gt;" style="text;html=1;align=center;verticalAlign=middle;resizable=0;points=[];autosize=1;strokeColor=none;fillColor=none;" vertex="1" parent="1">
          <mxGeometry x="1060" y="1700" width="120" height="40" as="geometry" />
        </mxCell>
        <mxCell id="KaNdL51t5YliKk2mCfF1-132" value="" style="shape=mxgraph.cisco.people.standing_woman;html=1;pointerEvents=1;dashed=0;fillColor=#036897;strokeColor=#ffffff;strokeWidth=2;verticalLabelPosition=bottom;verticalAlign=top;align=center;outlineConnect=0;" vertex="1" parent="1">
          <mxGeometry x="62" y="2187" width="32" height="90" as="geometry" />
        </mxCell>
        <mxCell id="KaNdL51t5YliKk2mCfF1-133" value="Customer" style="text;html=1;align=center;verticalAlign=middle;whiteSpace=wrap;rounded=0;" vertex="1" parent="1">
          <mxGeometry x="48" y="2277" width="60" height="30" as="geometry" />
        </mxCell>
        <mxCell id="KaNdL51t5YliKk2mCfF1-134" value="" style="endArrow=none;html=1;rounded=0;entryX=0;entryY=0.5;entryDx=0;entryDy=0;" edge="1" parent="1" target="KaNdL51t5YliKk2mCfF1-137">
          <mxGeometry width="50" height="50" relative="1" as="geometry">
            <mxPoint x="188" y="2300" as="sourcePoint" />
            <mxPoint x="187" y="2255" as="targetPoint" />
            <Array as="points">
              <mxPoint x="148" y="2300" />
              <mxPoint x="148" y="2175" />
            </Array>
          </mxGeometry>
        </mxCell>
        <mxCell id="KaNdL51t5YliKk2mCfF1-135" value="Add product to wishlist" style="ellipse;whiteSpace=wrap;html=1;" vertex="1" parent="1">
          <mxGeometry x="617" y="2230" width="90" height="50" as="geometry" />
        </mxCell>
        <mxCell id="KaNdL51t5YliKk2mCfF1-136" value="Add product to cart" style="ellipse;whiteSpace=wrap;html=1;" vertex="1" parent="1">
          <mxGeometry x="617" y="2312" width="90" height="50" as="geometry" />
        </mxCell>
        <mxCell id="KaNdL51t5YliKk2mCfF1-137" value="Log In" style="ellipse;whiteSpace=wrap;html=1;" vertex="1" parent="1">
          <mxGeometry x="186" y="2150" width="90" height="50" as="geometry" />
        </mxCell>
        <mxCell id="KaNdL51t5YliKk2mCfF1-138" value="Show all products" style="ellipse;whiteSpace=wrap;html=1;" vertex="1" parent="1">
          <mxGeometry x="186" y="2277" width="90" height="50" as="geometry" />
        </mxCell>
        <mxCell id="KaNdL51t5YliKk2mCfF1-139" value="Modify Customer Wishlist" style="ellipse;whiteSpace=wrap;html=1;" vertex="1" parent="1">
          <mxGeometry x="747" y="2232" width="90" height="50" as="geometry" />
        </mxCell>
        <mxCell id="KaNdL51t5YliKk2mCfF1-140" value="" style="endArrow=none;html=1;rounded=0;entryX=0;entryY=0.5;entryDx=0;entryDy=0;" edge="1" parent="1">
          <mxGeometry width="50" height="50" relative="1" as="geometry">
            <mxPoint x="707" y="2258" as="sourcePoint" />
            <mxPoint x="747" y="2258" as="targetPoint" />
          </mxGeometry>
        </mxCell>
        <mxCell id="KaNdL51t5YliKk2mCfF1-141" value="Select product" style="ellipse;whiteSpace=wrap;html=1;" vertex="1" parent="1">
          <mxGeometry x="448" y="2280" width="90" height="50" as="geometry" />
        </mxCell>
        <mxCell id="KaNdL51t5YliKk2mCfF1-142" value="" style="endArrow=none;html=1;rounded=0;entryX=0;entryY=0.5;entryDx=0;entryDy=0;" edge="1" parent="1">
          <mxGeometry width="50" height="50" relative="1" as="geometry">
            <mxPoint x="276" y="2305" as="sourcePoint" />
            <mxPoint x="316" y="2305" as="targetPoint" />
          </mxGeometry>
        </mxCell>
        <mxCell id="KaNdL51t5YliKk2mCfF1-143" value="" style="endArrow=none;html=1;rounded=0;entryX=0;entryY=0.5;entryDx=0;entryDy=0;" edge="1" parent="1">
          <mxGeometry width="50" height="50" relative="1" as="geometry">
            <mxPoint x="577" y="2336.64" as="sourcePoint" />
            <mxPoint x="617" y="2336.64" as="targetPoint" />
          </mxGeometry>
        </mxCell>
        <mxCell id="KaNdL51t5YliKk2mCfF1-144" value="" style="endArrow=none;html=1;rounded=0;" edge="1" parent="1">
          <mxGeometry width="50" height="50" relative="1" as="geometry">
            <mxPoint x="577" y="2258" as="sourcePoint" />
            <mxPoint x="577" y="2338" as="targetPoint" />
          </mxGeometry>
        </mxCell>
        <mxCell id="KaNdL51t5YliKk2mCfF1-145" value="" style="endArrow=none;html=1;rounded=0;exitX=1;exitY=0.5;exitDx=0;exitDy=0;" edge="1" parent="1" source="KaNdL51t5YliKk2mCfF1-141">
          <mxGeometry width="50" height="50" relative="1" as="geometry">
            <mxPoint x="488" y="2281" as="sourcePoint" />
            <mxPoint x="577" y="2304" as="targetPoint" />
          </mxGeometry>
        </mxCell>
        <mxCell id="KaNdL51t5YliKk2mCfF1-146" value="Buy product" style="ellipse;whiteSpace=wrap;html=1;" vertex="1" parent="1">
          <mxGeometry x="747" y="2312" width="90" height="50" as="geometry" />
        </mxCell>
        <mxCell id="KaNdL51t5YliKk2mCfF1-147" value="Modify product quantity" style="ellipse;whiteSpace=wrap;html=1;" vertex="1" parent="1">
          <mxGeometry x="897" y="2247" width="90" height="50" as="geometry" />
        </mxCell>
        <mxCell id="KaNdL51t5YliKk2mCfF1-148" value="" style="endArrow=none;html=1;rounded=0;entryX=0;entryY=0.5;entryDx=0;entryDy=0;" edge="1" parent="1">
          <mxGeometry width="50" height="50" relative="1" as="geometry">
            <mxPoint x="707" y="2336.58" as="sourcePoint" />
            <mxPoint x="747" y="2336.58" as="targetPoint" />
          </mxGeometry>
        </mxCell>
        <mxCell id="KaNdL51t5YliKk2mCfF1-149" value="" style="endArrow=none;html=1;rounded=0;entryX=0;entryY=0.5;entryDx=0;entryDy=0;" edge="1" parent="1">
          <mxGeometry width="50" height="50" relative="1" as="geometry">
            <mxPoint x="837" y="2336.8" as="sourcePoint" />
            <mxPoint x="877" y="2336.8" as="targetPoint" />
          </mxGeometry>
        </mxCell>
        <mxCell id="KaNdL51t5YliKk2mCfF1-150" value="&amp;nbsp; Modify&amp;nbsp; balance seller" style="ellipse;whiteSpace=wrap;html=1;" vertex="1" parent="1">
          <mxGeometry x="897" y="2312" width="90" height="50" as="geometry" />
        </mxCell>
        <mxCell id="KaNdL51t5YliKk2mCfF1-151" value="&amp;nbsp; Modify&amp;nbsp; balance customer" style="ellipse;whiteSpace=wrap;html=1;" vertex="1" parent="1">
          <mxGeometry x="897" y="2375" width="90" height="50" as="geometry" />
        </mxCell>
        <mxCell id="KaNdL51t5YliKk2mCfF1-152" value="" style="endArrow=none;html=1;rounded=0;entryX=0;entryY=0.5;entryDx=0;entryDy=0;" edge="1" parent="1" target="KaNdL51t5YliKk2mCfF1-147">
          <mxGeometry width="50" height="50" relative="1" as="geometry">
            <mxPoint x="877" y="2338" as="sourcePoint" />
            <mxPoint x="727" y="2308" as="targetPoint" />
            <Array as="points">
              <mxPoint x="877" y="2272" />
            </Array>
          </mxGeometry>
        </mxCell>
        <mxCell id="KaNdL51t5YliKk2mCfF1-153" value="" style="endArrow=none;html=1;rounded=0;entryX=-0.048;entryY=0.4;entryDx=0;entryDy=0;entryPerimeter=0;" edge="1" parent="1" target="KaNdL51t5YliKk2mCfF1-151">
          <mxGeometry width="50" height="50" relative="1" as="geometry">
            <mxPoint x="877" y="2338" as="sourcePoint" />
            <mxPoint x="727" y="2308" as="targetPoint" />
            <Array as="points">
              <mxPoint x="877" y="2395" />
            </Array>
          </mxGeometry>
        </mxCell>
        <mxCell id="KaNdL51t5YliKk2mCfF1-154" value="" style="endArrow=none;html=1;rounded=0;entryX=0;entryY=0.5;entryDx=0;entryDy=0;" edge="1" parent="1">
          <mxGeometry width="50" height="50" relative="1" as="geometry">
            <mxPoint x="877" y="2337" as="sourcePoint" />
            <mxPoint x="897" y="2337" as="targetPoint" />
          </mxGeometry>
        </mxCell>
        <mxCell id="KaNdL51t5YliKk2mCfF1-155" value="" style="endArrow=none;html=1;rounded=0;entryX=0;entryY=0.5;entryDx=0;entryDy=0;" edge="1" parent="1">
          <mxGeometry width="50" height="50" relative="1" as="geometry">
            <mxPoint x="577" y="2258" as="sourcePoint" />
            <mxPoint x="617" y="2258" as="targetPoint" />
          </mxGeometry>
        </mxCell>
        <mxCell id="KaNdL51t5YliKk2mCfF1-156" value="" style="endArrow=none;html=1;rounded=0;exitX=0.99;exitY=0.5;exitDx=0;exitDy=0;exitPerimeter=0;" edge="1" parent="1">
          <mxGeometry width="50" height="50" relative="1" as="geometry">
            <mxPoint x="104" y="2236.5" as="sourcePoint" />
            <mxPoint x="146" y="2237.5" as="targetPoint" />
          </mxGeometry>
        </mxCell>
        <mxCell id="KaNdL51t5YliKk2mCfF1-157" value="Register" style="ellipse;whiteSpace=wrap;html=1;" vertex="1" parent="1">
          <mxGeometry x="186" y="2212" width="90" height="50" as="geometry" />
        </mxCell>
        <mxCell id="KaNdL51t5YliKk2mCfF1-158" value="Filter products" style="ellipse;whiteSpace=wrap;html=1;" vertex="1" parent="1">
          <mxGeometry x="317" y="2277" width="90" height="50" as="geometry" />
        </mxCell>
        <mxCell id="KaNdL51t5YliKk2mCfF1-159" value="" style="endArrow=none;html=1;rounded=0;entryX=0;entryY=0.5;entryDx=0;entryDy=0;" edge="1" parent="1">
          <mxGeometry width="50" height="50" relative="1" as="geometry">
            <mxPoint x="407" y="2306.2" as="sourcePoint" />
            <mxPoint x="447" y="2306.2" as="targetPoint" />
          </mxGeometry>
        </mxCell>
        <mxCell id="KaNdL51t5YliKk2mCfF1-160" value="" style="endArrow=none;html=1;rounded=0;entryX=0;entryY=0.5;entryDx=0;entryDy=0;" edge="1" parent="1" target="KaNdL51t5YliKk2mCfF1-157">
          <mxGeometry width="50" height="50" relative="1" as="geometry">
            <mxPoint x="148" y="2237" as="sourcePoint" />
            <mxPoint x="186" y="2244.5" as="targetPoint" />
          </mxGeometry>
        </mxCell>
        <mxCell id="KaNdL51t5YliKk2mCfF1-161" value="" style="shape=mxgraph.cisco.people.standing_woman;html=1;pointerEvents=1;dashed=0;fillColor=#036897;strokeColor=#ffffff;strokeWidth=2;verticalLabelPosition=bottom;verticalAlign=top;align=center;outlineConnect=0;" vertex="1" parent="1">
          <mxGeometry x="1074" y="2224" width="32" height="90" as="geometry" />
        </mxCell>
        <mxCell id="KaNdL51t5YliKk2mCfF1-162" value="Customer" style="text;html=1;align=center;verticalAlign=middle;whiteSpace=wrap;rounded=0;" vertex="1" parent="1">
          <mxGeometry x="1060" y="2314" width="60" height="30" as="geometry" />
        </mxCell>
        <mxCell id="KaNdL51t5YliKk2mCfF1-163" value="" style="endArrow=none;html=1;rounded=0;entryX=0;entryY=0.5;entryDx=0;entryDy=0;" edge="1" parent="1" target="KaNdL51t5YliKk2mCfF1-164">
          <mxGeometry width="50" height="50" relative="1" as="geometry">
            <mxPoint x="1200" y="2337" as="sourcePoint" />
            <mxPoint x="1199" y="2292" as="targetPoint" />
            <Array as="points">
              <mxPoint x="1160" y="2337" />
              <mxPoint x="1160" y="2212" />
            </Array>
          </mxGeometry>
        </mxCell>
        <mxCell id="KaNdL51t5YliKk2mCfF1-164" value="Log In" style="ellipse;whiteSpace=wrap;html=1;" vertex="1" parent="1">
          <mxGeometry x="1198" y="2187" width="90" height="50" as="geometry" />
        </mxCell>
        <mxCell id="KaNdL51t5YliKk2mCfF1-165" value="" style="endArrow=none;html=1;rounded=0;exitX=0.99;exitY=0.5;exitDx=0;exitDy=0;exitPerimeter=0;" edge="1" parent="1">
          <mxGeometry width="50" height="50" relative="1" as="geometry">
            <mxPoint x="1116" y="2273.5" as="sourcePoint" />
            <mxPoint x="1158" y="2274.5" as="targetPoint" />
          </mxGeometry>
        </mxCell>
        <mxCell id="KaNdL51t5YliKk2mCfF1-166" value="Register" style="ellipse;whiteSpace=wrap;html=1;" vertex="1" parent="1">
          <mxGeometry x="1198" y="2249" width="90" height="50" as="geometry" />
        </mxCell>
        <mxCell id="KaNdL51t5YliKk2mCfF1-167" value="" style="endArrow=none;html=1;rounded=0;entryX=0;entryY=0.5;entryDx=0;entryDy=0;" edge="1" parent="1" target="KaNdL51t5YliKk2mCfF1-166">
          <mxGeometry width="50" height="50" relative="1" as="geometry">
            <mxPoint x="1160" y="2274" as="sourcePoint" />
            <mxPoint x="1198" y="2281.5" as="targetPoint" />
          </mxGeometry>
        </mxCell>
        <mxCell id="KaNdL51t5YliKk2mCfF1-168" value="Show all pets" style="ellipse;whiteSpace=wrap;html=1;" vertex="1" parent="1">
          <mxGeometry x="1198" y="2314" width="90" height="50" as="geometry" />
        </mxCell>
        <mxCell id="KaNdL51t5YliKk2mCfF1-169" value="Select pet" style="ellipse;whiteSpace=wrap;html=1;" vertex="1" parent="1">
          <mxGeometry x="1328" y="2314" width="90" height="50" as="geometry" />
        </mxCell>
        <mxCell id="KaNdL51t5YliKk2mCfF1-170" value="Request&amp;nbsp; adoption" style="ellipse;whiteSpace=wrap;html=1;" vertex="1" parent="1">
          <mxGeometry x="1458" y="2314" width="90" height="50" as="geometry" />
        </mxCell>
        <mxCell id="KaNdL51t5YliKk2mCfF1-171" value="" style="endArrow=none;html=1;rounded=0;entryX=0;entryY=0.5;entryDx=0;entryDy=0;" edge="1" parent="1">
          <mxGeometry width="50" height="50" relative="1" as="geometry">
            <mxPoint x="1288" y="2338.7599999999998" as="sourcePoint" />
            <mxPoint x="1328" y="2338.7599999999998" as="targetPoint" />
          </mxGeometry>
        </mxCell>
        <mxCell id="KaNdL51t5YliKk2mCfF1-172" value="" style="endArrow=none;html=1;rounded=0;entryX=0;entryY=0.5;entryDx=0;entryDy=0;" edge="1" parent="1">
          <mxGeometry width="50" height="50" relative="1" as="geometry">
            <mxPoint x="1418" y="2338.7599999999998" as="sourcePoint" />
            <mxPoint x="1458" y="2338.7599999999998" as="targetPoint" />
          </mxGeometry>
        </mxCell>
        <mxCell id="KaNdL51t5YliKk2mCfF1-173" value="Review Seller Request" style="ellipse;whiteSpace=wrap;html=1;" vertex="1" parent="1">
          <mxGeometry x="1161" y="2009.5" width="110" height="50" as="geometry" />
        </mxCell>
        <mxCell id="KaNdL51t5YliKk2mCfF1-174" value="Review Seller Request" style="ellipse;whiteSpace=wrap;html=1;" vertex="1" parent="1">
          <mxGeometry x="1161" y="2087.5" width="110" height="50" as="geometry" />
        </mxCell>
        <mxCell id="KaNdL51t5YliKk2mCfF1-175" value="Modify User" style="ellipse;whiteSpace=wrap;html=1;" vertex="1" parent="1">
          <mxGeometry x="1342" y="2009.5" width="110" height="50" as="geometry" />
        </mxCell>
        <mxCell id="KaNdL51t5YliKk2mCfF1-176" value="" style="endArrow=none;html=1;rounded=0;exitX=0;exitY=0.5;exitDx=0;exitDy=0;" edge="1" parent="1" source="KaNdL51t5YliKk2mCfF1-175">
          <mxGeometry width="50" height="50" relative="1" as="geometry">
            <mxPoint x="1311" y="2034.12" as="sourcePoint" />
            <mxPoint x="1271" y="2034.12" as="targetPoint" />
          </mxGeometry>
        </mxCell>
        <mxCell id="KaNdL51t5YliKk2mCfF1-177" value="Modify User" style="ellipse;whiteSpace=wrap;html=1;" vertex="1" parent="1">
          <mxGeometry x="1341" y="2087.5" width="110" height="50" as="geometry" />
        </mxCell>
        <mxCell id="KaNdL51t5YliKk2mCfF1-178" value="" style="endArrow=none;html=1;rounded=0;exitX=0;exitY=0.5;exitDx=0;exitDy=0;" edge="1" parent="1" source="KaNdL51t5YliKk2mCfF1-177">
          <mxGeometry width="50" height="50" relative="1" as="geometry">
            <mxPoint x="1310" y="2112.12" as="sourcePoint" />
            <mxPoint x="1270" y="2112.12" as="targetPoint" />
          </mxGeometry>
        </mxCell>
        <mxCell id="KaNdL51t5YliKk2mCfF1-179" value="" style="endArrow=none;html=1;rounded=0;exitX=0;exitY=0.5;exitDx=0;exitDy=0;" edge="1" parent="1">
          <mxGeometry width="50" height="50" relative="1" as="geometry">
            <mxPoint x="1161" y="2035" as="sourcePoint" />
            <mxPoint x="1121" y="2034" as="targetPoint" />
          </mxGeometry>
        </mxCell>
        <mxCell id="KaNdL51t5YliKk2mCfF1-180" value="" style="endArrow=none;html=1;rounded=0;exitX=0;exitY=0.5;exitDx=0;exitDy=0;" edge="1" parent="1">
          <mxGeometry width="50" height="50" relative="1" as="geometry">
            <mxPoint x="1161" y="2113" as="sourcePoint" />
            <mxPoint x="1121" y="2112" as="targetPoint" />
          </mxGeometry>
        </mxCell>
        <mxCell id="KaNdL51t5YliKk2mCfF1-181" value="" style="shape=mxgraph.cisco.people.standing_woman;html=1;pointerEvents=1;dashed=0;fillColor=#036897;strokeColor=#ffffff;strokeWidth=2;verticalLabelPosition=bottom;verticalAlign=top;align=center;outlineConnect=0;" vertex="1" parent="1">
          <mxGeometry x="30" y="2610" width="32" height="90" as="geometry" />
        </mxCell>
        <mxCell id="KaNdL51t5YliKk2mCfF1-182" value="Seller" style="text;html=1;align=center;verticalAlign=middle;whiteSpace=wrap;rounded=0;" vertex="1" parent="1">
          <mxGeometry x="16" y="2700" width="60" height="30" as="geometry" />
        </mxCell>
        <mxCell id="KaNdL51t5YliKk2mCfF1-183" value="" style="endArrow=none;html=1;rounded=0;entryX=0;entryY=0.5;entryDx=0;entryDy=0;exitX=0;exitY=0.5;exitDx=0;exitDy=0;" edge="1" parent="1" target="KaNdL51t5YliKk2mCfF1-189">
          <mxGeometry width="50" height="50" relative="1" as="geometry">
            <mxPoint x="155" y="2880" as="sourcePoint" />
            <mxPoint x="155" y="2735" as="targetPoint" />
            <Array as="points">
              <mxPoint x="110" y="2880" />
              <mxPoint x="114" y="2510" />
            </Array>
          </mxGeometry>
        </mxCell>
        <mxCell id="KaNdL51t5YliKk2mCfF1-184" value="" style="endArrow=none;html=1;rounded=0;exitX=0.99;exitY=0.5;exitDx=0;exitDy=0;exitPerimeter=0;" edge="1" parent="1">
          <mxGeometry width="50" height="50" relative="1" as="geometry">
            <mxPoint x="73.99999999999994" y="2663.5" as="sourcePoint" />
            <mxPoint x="116.32" y="2664.5" as="targetPoint" />
          </mxGeometry>
        </mxCell>
        <mxCell id="KaNdL51t5YliKk2mCfF1-185" value="&lt;span style=&quot;font-size: 11px;&quot;&gt;Add new product to sell&lt;/span&gt;" style="ellipse;whiteSpace=wrap;html=1;" vertex="1" parent="1">
          <mxGeometry x="154" y="2710" width="126" height="60" as="geometry" />
        </mxCell>
        <mxCell id="KaNdL51t5YliKk2mCfF1-186" value="" style="endArrow=none;html=1;rounded=0;entryX=0;entryY=0.5;entryDx=0;entryDy=0;" edge="1" parent="1">
          <mxGeometry width="50" height="50" relative="1" as="geometry">
            <mxPoint x="114" y="2810" as="sourcePoint" />
            <mxPoint x="154" y="2810" as="targetPoint" />
          </mxGeometry>
        </mxCell>
        <mxCell id="KaNdL51t5YliKk2mCfF1-187" value="&lt;font style=&quot;font-size: 11px;&quot;&gt;Edit details for existing owned product&lt;/font&gt;" style="ellipse;whiteSpace=wrap;html=1;" vertex="1" parent="1">
          <mxGeometry x="155" y="2780" width="126" height="60" as="geometry" />
        </mxCell>
        <mxCell id="KaNdL51t5YliKk2mCfF1-188" value="" style="endArrow=none;html=1;rounded=0;entryX=0;entryY=0.5;entryDx=0;entryDy=0;" edge="1" parent="1">
          <mxGeometry width="50" height="50" relative="1" as="geometry">
            <mxPoint x="280" y="2740" as="sourcePoint" />
            <mxPoint x="320" y="2740" as="targetPoint" />
          </mxGeometry>
        </mxCell>
        <mxCell id="KaNdL51t5YliKk2mCfF1-189" value="&lt;span style=&quot;font-size: 11px;&quot;&gt;Log In&lt;/span&gt;" style="ellipse;whiteSpace=wrap;html=1;" vertex="1" parent="1">
          <mxGeometry x="155" y="2480" width="126" height="60" as="geometry" />
        </mxCell>
        <mxCell id="KaNdL51t5YliKk2mCfF1-190" value="&lt;span style=&quot;font-size: 11px;&quot;&gt;Register&lt;/span&gt;" style="ellipse;whiteSpace=wrap;html=1;" vertex="1" parent="1">
          <mxGeometry x="155" y="2561" width="126" height="60" as="geometry" />
        </mxCell>
        <mxCell id="KaNdL51t5YliKk2mCfF1-191" value="&lt;span style=&quot;font-size: 11px;&quot;&gt;Request Seller&amp;nbsp;&lt;/span&gt;&lt;div&gt;&lt;span style=&quot;font-size: 11px;&quot;&gt;Privileges&lt;/span&gt;&lt;/div&gt;" style="ellipse;whiteSpace=wrap;html=1;" vertex="1" parent="1">
          <mxGeometry x="155" y="2634" width="126" height="60" as="geometry" />
        </mxCell>
        <mxCell id="KaNdL51t5YliKk2mCfF1-192" value="&lt;font style=&quot;font-size: 11px;&quot;&gt;Request product&amp;nbsp;&lt;/font&gt;&lt;div&gt;&lt;font style=&quot;font-size: 11px;&quot;&gt;creation&lt;/font&gt;&lt;/div&gt;" style="ellipse;whiteSpace=wrap;html=1;" vertex="1" parent="1">
          <mxGeometry x="324" y="2710" width="126" height="60" as="geometry" />
        </mxCell>
        <mxCell id="KaNdL51t5YliKk2mCfF1-193" value="&lt;font style=&quot;font-size: 11px;&quot;&gt;Request product&amp;nbsp;&lt;/font&gt;&lt;div&gt;&lt;font style=&quot;font-size: 11px;&quot;&gt;modification&lt;/font&gt;&lt;/div&gt;" style="ellipse;whiteSpace=wrap;html=1;" vertex="1" parent="1">
          <mxGeometry x="324" y="2780" width="126" height="60" as="geometry" />
        </mxCell>
        <mxCell id="KaNdL51t5YliKk2mCfF1-194" value="" style="endArrow=none;html=1;rounded=0;entryX=0;entryY=0.5;entryDx=0;entryDy=0;" edge="1" parent="1">
          <mxGeometry width="50" height="50" relative="1" as="geometry">
            <mxPoint x="450" y="2739.5699999999997" as="sourcePoint" />
            <mxPoint x="490" y="2739.5699999999997" as="targetPoint" />
          </mxGeometry>
        </mxCell>
        <mxCell id="KaNdL51t5YliKk2mCfF1-195" value="" style="endArrow=none;html=1;rounded=0;entryX=0;entryY=0.5;entryDx=0;entryDy=0;" edge="1" parent="1">
          <mxGeometry width="50" height="50" relative="1" as="geometry">
            <mxPoint x="284" y="2809.5699999999997" as="sourcePoint" />
            <mxPoint x="324" y="2809.5699999999997" as="targetPoint" />
          </mxGeometry>
        </mxCell>
        <mxCell id="KaNdL51t5YliKk2mCfF1-196" value="" style="endArrow=none;html=1;rounded=0;entryX=0;entryY=0.5;entryDx=0;entryDy=0;" edge="1" parent="1">
          <mxGeometry width="50" height="50" relative="1" as="geometry">
            <mxPoint x="114" y="2739.5699999999997" as="sourcePoint" />
            <mxPoint x="154" y="2739.5699999999997" as="targetPoint" />
          </mxGeometry>
        </mxCell>
        <mxCell id="KaNdL51t5YliKk2mCfF1-197" value="" style="endArrow=none;html=1;rounded=0;entryX=0;entryY=0.5;entryDx=0;entryDy=0;" edge="1" parent="1">
          <mxGeometry width="50" height="50" relative="1" as="geometry">
            <mxPoint x="114" y="2663.5699999999997" as="sourcePoint" />
            <mxPoint x="154" y="2663.5699999999997" as="targetPoint" />
          </mxGeometry>
        </mxCell>
        <mxCell id="KaNdL51t5YliKk2mCfF1-198" value="" style="endArrow=none;html=1;rounded=0;entryX=0;entryY=0.5;entryDx=0;entryDy=0;" edge="1" parent="1">
          <mxGeometry width="50" height="50" relative="1" as="geometry">
            <mxPoint x="115" y="2590.5699999999997" as="sourcePoint" />
            <mxPoint x="155" y="2590.5699999999997" as="targetPoint" />
          </mxGeometry>
        </mxCell>
        <mxCell id="KaNdL51t5YliKk2mCfF1-199" value="&lt;span style=&quot;font-size: 11px;&quot;&gt;Remove product to sell&lt;/span&gt;" style="ellipse;whiteSpace=wrap;html=1;" vertex="1" parent="1">
          <mxGeometry x="155" y="2850" width="126" height="60" as="geometry" />
        </mxCell>
        <mxCell id="KaNdL51t5YliKk2mCfF1-200" value="" style="shape=mxgraph.cisco.people.standing_woman;html=1;pointerEvents=1;dashed=0;fillColor=#036897;strokeColor=#ffffff;strokeWidth=2;verticalLabelPosition=bottom;verticalAlign=top;align=center;outlineConnect=0;" vertex="1" parent="1">
          <mxGeometry x="1001" y="2610" width="32" height="90" as="geometry" />
        </mxCell>
        <mxCell id="KaNdL51t5YliKk2mCfF1-201" value="" style="endArrow=none;html=1;rounded=0;entryX=0;entryY=0.5;entryDx=0;entryDy=0;exitX=0;exitY=0.5;exitDx=0;exitDy=0;" edge="1" parent="1" source="KaNdL51t5YliKk2mCfF1-220" target="KaNdL51t5YliKk2mCfF1-206">
          <mxGeometry width="50" height="50" relative="1" as="geometry">
            <mxPoint x="1126.0000000000007" y="2880" as="sourcePoint" />
            <mxPoint x="1126" y="2735" as="targetPoint" />
            <Array as="points">
              <mxPoint x="1081" y="2960" />
              <mxPoint x="1085" y="2510" />
            </Array>
          </mxGeometry>
        </mxCell>
        <mxCell id="KaNdL51t5YliKk2mCfF1-202" value="" style="endArrow=none;html=1;rounded=0;exitX=0.99;exitY=0.5;exitDx=0;exitDy=0;exitPerimeter=0;" edge="1" parent="1">
          <mxGeometry width="50" height="50" relative="1" as="geometry">
            <mxPoint x="1045" y="2663.5" as="sourcePoint" />
            <mxPoint x="1085" y="2664" as="targetPoint" />
          </mxGeometry>
        </mxCell>
        <mxCell id="KaNdL51t5YliKk2mCfF1-203" value="" style="endArrow=none;html=1;rounded=0;entryX=0;entryY=0.5;entryDx=0;entryDy=0;" edge="1" parent="1">
          <mxGeometry width="50" height="50" relative="1" as="geometry">
            <mxPoint x="1085" y="2810" as="sourcePoint" />
            <mxPoint x="1125" y="2810" as="targetPoint" />
          </mxGeometry>
        </mxCell>
        <mxCell id="KaNdL51t5YliKk2mCfF1-204" value="" style="endArrow=none;html=1;rounded=0;entryX=0;entryY=0.5;entryDx=0;entryDy=0;" edge="1" parent="1">
          <mxGeometry width="50" height="50" relative="1" as="geometry">
            <mxPoint x="1251" y="2740" as="sourcePoint" />
            <mxPoint x="1291" y="2740" as="targetPoint" />
          </mxGeometry>
        </mxCell>
        <mxCell id="KaNdL51t5YliKk2mCfF1-205" value="&lt;font style=&quot;font-size: 11px;&quot;&gt;Create new product&amp;nbsp;&lt;/font&gt;" style="ellipse;whiteSpace=wrap;html=1;" vertex="1" parent="1">
          <mxGeometry x="1465" y="2710" width="126" height="60" as="geometry" />
        </mxCell>
        <mxCell id="KaNdL51t5YliKk2mCfF1-206" value="&lt;span style=&quot;font-size: 11px;&quot;&gt;Log In&lt;/span&gt;" style="ellipse;whiteSpace=wrap;html=1;" vertex="1" parent="1">
          <mxGeometry x="1126" y="2480" width="126" height="60" as="geometry" />
        </mxCell>
        <mxCell id="KaNdL51t5YliKk2mCfF1-207" value="&lt;span style=&quot;font-size: 11px;&quot;&gt;Register&lt;/span&gt;" style="ellipse;whiteSpace=wrap;html=1;" vertex="1" parent="1">
          <mxGeometry x="1126" y="2561" width="126" height="60" as="geometry" />
        </mxCell>
        <mxCell id="KaNdL51t5YliKk2mCfF1-208" value="&lt;span style=&quot;font-size: 11px;&quot;&gt;Request Adopter&lt;/span&gt;&lt;div&gt;&lt;span style=&quot;font-size: 11px;&quot;&gt;Privileges&lt;/span&gt;&lt;/div&gt;" style="ellipse;whiteSpace=wrap;html=1;" vertex="1" parent="1">
          <mxGeometry x="1126" y="2634" width="126" height="60" as="geometry" />
        </mxCell>
        <mxCell id="KaNdL51t5YliKk2mCfF1-209" value="&lt;font style=&quot;font-size: 11px;&quot;&gt;Request product&amp;nbsp;&lt;/font&gt;&lt;div&gt;&lt;font style=&quot;font-size: 11px;&quot;&gt;creation&lt;/font&gt;&lt;/div&gt;" style="ellipse;whiteSpace=wrap;html=1;" vertex="1" parent="1">
          <mxGeometry x="1295" y="2710" width="126" height="60" as="geometry" />
        </mxCell>
        <mxCell id="KaNdL51t5YliKk2mCfF1-210" value="&lt;font style=&quot;font-size: 11px;&quot;&gt;Request product&amp;nbsp;&lt;/font&gt;&lt;div&gt;&lt;font style=&quot;font-size: 11px;&quot;&gt;modification&lt;/font&gt;&lt;/div&gt;" style="ellipse;whiteSpace=wrap;html=1;" vertex="1" parent="1">
          <mxGeometry x="1295" y="2780" width="126" height="60" as="geometry" />
        </mxCell>
        <mxCell id="KaNdL51t5YliKk2mCfF1-211" value="" style="endArrow=none;html=1;rounded=0;entryX=0;entryY=0.5;entryDx=0;entryDy=0;" edge="1" parent="1">
          <mxGeometry width="50" height="50" relative="1" as="geometry">
            <mxPoint x="1421" y="2739.5699999999997" as="sourcePoint" />
            <mxPoint x="1461" y="2739.5699999999997" as="targetPoint" />
          </mxGeometry>
        </mxCell>
        <mxCell id="KaNdL51t5YliKk2mCfF1-212" value="" style="endArrow=none;html=1;rounded=0;entryX=0;entryY=0.5;entryDx=0;entryDy=0;" edge="1" parent="1">
          <mxGeometry width="50" height="50" relative="1" as="geometry">
            <mxPoint x="1255" y="2809.5699999999997" as="sourcePoint" />
            <mxPoint x="1295" y="2809.5699999999997" as="targetPoint" />
          </mxGeometry>
        </mxCell>
        <mxCell id="KaNdL51t5YliKk2mCfF1-213" value="" style="endArrow=none;html=1;rounded=0;entryX=0;entryY=0.5;entryDx=0;entryDy=0;" edge="1" parent="1">
          <mxGeometry width="50" height="50" relative="1" as="geometry">
            <mxPoint x="1085" y="2739.5699999999997" as="sourcePoint" />
            <mxPoint x="1125" y="2739.5699999999997" as="targetPoint" />
          </mxGeometry>
        </mxCell>
        <mxCell id="KaNdL51t5YliKk2mCfF1-214" value="" style="endArrow=none;html=1;rounded=0;entryX=0;entryY=0.5;entryDx=0;entryDy=0;" edge="1" parent="1">
          <mxGeometry width="50" height="50" relative="1" as="geometry">
            <mxPoint x="1085" y="2663.5699999999997" as="sourcePoint" />
            <mxPoint x="1125" y="2663.5699999999997" as="targetPoint" />
          </mxGeometry>
        </mxCell>
        <mxCell id="KaNdL51t5YliKk2mCfF1-215" value="" style="endArrow=none;html=1;rounded=0;entryX=0;entryY=0.5;entryDx=0;entryDy=0;" edge="1" parent="1">
          <mxGeometry width="50" height="50" relative="1" as="geometry">
            <mxPoint x="1086" y="2590.5699999999997" as="sourcePoint" />
            <mxPoint x="1126" y="2590.5699999999997" as="targetPoint" />
          </mxGeometry>
        </mxCell>
        <mxCell id="KaNdL51t5YliKk2mCfF1-216" value="Pet Foster" style="text;html=1;align=center;verticalAlign=middle;whiteSpace=wrap;rounded=0;" vertex="1" parent="1">
          <mxGeometry x="987" y="2700" width="60" height="30" as="geometry" />
        </mxCell>
        <mxCell id="KaNdL51t5YliKk2mCfF1-217" value="&lt;span style=&quot;font-size: 11px;&quot;&gt;Add new pet for addoption&lt;/span&gt;" style="ellipse;whiteSpace=wrap;html=1;" vertex="1" parent="1">
          <mxGeometry x="1126" y="2710" width="126" height="60" as="geometry" />
        </mxCell>
        <mxCell id="KaNdL51t5YliKk2mCfF1-218" value="&lt;font style=&quot;font-size: 11px;&quot;&gt;Edit details for existing pet&amp;nbsp;&lt;/font&gt;" style="ellipse;whiteSpace=wrap;html=1;" vertex="1" parent="1">
          <mxGeometry x="1124" y="2780" width="126" height="60" as="geometry" />
        </mxCell>
        <mxCell id="KaNdL51t5YliKk2mCfF1-219" value="&lt;span style=&quot;font-size: 11px;&quot;&gt;See all pets given for adoption&lt;/span&gt;" style="ellipse;whiteSpace=wrap;html=1;" vertex="1" parent="1">
          <mxGeometry x="1126" y="2850" width="126" height="60" as="geometry" />
        </mxCell>
        <mxCell id="KaNdL51t5YliKk2mCfF1-220" value="&lt;span style=&quot;font-size: 11px;&quot;&gt;Give pet for adoption&lt;/span&gt;" style="ellipse;whiteSpace=wrap;html=1;" vertex="1" parent="1">
          <mxGeometry x="1128" y="2930" width="126" height="60" as="geometry" />
        </mxCell>
        <mxCell id="KaNdL51t5YliKk2mCfF1-221" value="&lt;span style=&quot;font-size: 11px;&quot;&gt;Remove pet&lt;/span&gt;" style="ellipse;whiteSpace=wrap;html=1;" vertex="1" parent="1">
          <mxGeometry x="1295" y="2930" width="126" height="60" as="geometry" />
        </mxCell>
        <mxCell id="KaNdL51t5YliKk2mCfF1-222" value="" style="endArrow=none;html=1;rounded=0;entryX=0;entryY=0.5;entryDx=0;entryDy=0;" edge="1" parent="1">
          <mxGeometry width="50" height="50" relative="1" as="geometry">
            <mxPoint x="1254" y="2959.6" as="sourcePoint" />
            <mxPoint x="1294" y="2959.6" as="targetPoint" />
          </mxGeometry>
        </mxCell>
        <mxCell id="KaNdL51t5YliKk2mCfF1-223" value="" style="endArrow=none;html=1;rounded=0;entryX=0;entryY=0.5;entryDx=0;entryDy=0;" edge="1" parent="1">
          <mxGeometry width="50" height="50" relative="1" as="geometry">
            <mxPoint x="1084" y="2879.79" as="sourcePoint" />
            <mxPoint x="1124" y="2879.79" as="targetPoint" />
          </mxGeometry>
        </mxCell>
        <mxCell id="KaNdL51t5YliKk2mCfF1-224" value="&lt;font style=&quot;font-size: 11px;&quot;&gt;Create new product&amp;nbsp;&lt;/font&gt;" style="ellipse;whiteSpace=wrap;html=1;" vertex="1" parent="1">
          <mxGeometry x="491" y="2710" width="126" height="60" as="geometry" />
        </mxCell>
      </root>
    </mxGraphModel>
  </diagram>
</mxfile>
